#!OML:ASF F:\VICON\USERDATA\INSTALL\rory3\rory3.ASF
:FULLY-SPECIFIED
:DEGREES
260
root 0.4439530665574582 17.82740299277095 63.10666503725286 -1.4378412815408144 -1.7168517481137267 -3.1136501531179888
lfemur -10.81066421417699 -2.9409638623926098 -17.492254074345464
ltibia 25.60158772386299
lfoot 9.279639340833752 -8.481342828794952
ltoes -3.5784773694337604
rfemur -14.587530965504477 4.106156717705474 26.61717084961678
rtibia 35.89346545596359
rfoot -6.1637149807924585 -9.879725339191832
rtoes 1.3931728038193347
lowerback 11.630306891913085 0.5136016874293404 2.1987527245769636
upperback 0.10858109996126128 1.2352081580089032 2.1241225156105417
thorax -6.136207111954853 0.6099924027443044 0.31448457211303227
lowerneck -16.324502037276265 -3.0459863644185132 -3.3517885268641052
upperneck 22.28038481482256 -3.7145752004721784 1.5799550636750561
head 9.722892962337355 -1.8176240648870081 0.7575043562244995
lclavicle -2.0282167233302862e-15 -7.128745824356501e-16
lhumerus -33.28572360702594 1.8484634195397973 79.82982251503414
lradius 29.661543841586028
lwrist 8.514291529124472
lhand -29.8109594841976 18.6892709198175
lfingers 7.12502
lthumb -2.9484247291377206 49.336291035554254
rclavicle -2.0280864491302107e-15 -7.127736740429129e-16
rhumerus -28.875281516991034 -20.169031854617764 -76.11799099596861
rradius 21.1971933559569
rwrist 5.498155835200187
rhand -16.892000567191417 21.04330781695736
rfingers 7.12502
rthumb 8.569056428173308 -7.003345277935799
261
root 0.4515017408155048 17.840637175714154 63.158320156319604 -1.4307941157533997 -1.7390105217953846 -2.8068759684245284
lfemur -10.586440735289273 -2.9277753612169946 -17.920404412174324
ltibia 25.98859686460945
lfoot 9.192282024090423 -8.400689898722838
ltoes -2.332099036924596
rfemur -14.47986849390544 4.2030670201206375 26.124093991691655
rtibia 36.510295312916774
rfoot -6.064348343405205 -9.339821369601504
rtoes 2.50090243258118
lowerback 11.527351737051113 0.5128790518038128 1.9924900598985862
upperback 0.12455106227352308 1.175901677750609 2.048194915318296
thorax -6.063348903200407 0.5896813232445386 0.41299396599734317
lowerneck -16.346156726954874 -3.0302171407423373 -3.372778558674042
upperneck 22.26273429536766 -3.6868544593486114 1.5637596414578405
head 9.711775287645128 -1.8091973911962034 0.7617426465561916
lclavicle -2.0282608383847475e-15 -7.129030098122215e-16
lhumerus -33.302507985018 1.7371938344703741 79.95210797948141
lradius 29.726044886195254
lwrist 8.712027563433319
lhand -30.054207896051008 18.520352823754713
lfingers 7.12502
lthumb -3.1872271663958114 49.106902868914084
rclavicle -2.027801326277865e-15 -7.125916149633633e-16
rhumerus -29.150447830246804 -20.576069326950226 -76.00375715519756
rradius 20.95679394873795
rwrist 5.691121880641024
rhand -16.948338850542925 21.109902325276924
rfingers 7.12502
rthumb 8.508155922605 -6.876120245366434
262
root 0.4583126051236556 17.853689582499896 63.071957726911 -1.3581900580704733 -1.8707635298349166 -2.8853433980251673
lfemur -10.366037557419201 -2.7801061913609186 -17.96689027427908
ltibia 26.425698220647764
lfoot 8.744651473017846 -8.273389749564647
ltoes -1.7426566579065499
rfemur -14.454521100280964 4.49304868876099 25.93166120840917
rtibia 36.95034428388062
rfoot -6.048291377747487 -8.980445098269854
rtoes 3.567348072082174
lowerback 11.403917592164357 0.5363047495696747 2.0498104314364403
upperback 0.09680881708828507 1.2208215479952131 2.033999881641872
thorax -5.980118507854616 0.6144046486296701 0.41892252643638606
lowerneck -16.34467218342969 -3.012996352064946 -3.3761183771303847
upperneck 22.26246690817363 -3.6562773381887053 1.4913378611634096
head 9.705484331182221 -1.8018152349741372 0.7419038011102725
lclavicle -2.0282613841869645e-15 -7.129050425040287e-16
lhumerus -33.303431792059875 1.8679985748042676 80.00545755315213
lradius 29.632528286026655
lwrist 8.603781899857987
lhand -30.17917674272294 18.39044363368498
lfingers 7.12502
lthumb -3.3084540973151086 48.975861327840036
rclavicle -2.027666927964771e-15 -7.1250583768768665e-16
rhumerus -29.492660081411593 -21.077812177002635 -75.88880518915873
rradius 20.717462389092557
rwrist 5.909214239628712
rhand -16.991764989121954 21.114366700961035
rfingers 7.12502
rthumb 8.510046945715056 -6.769768737150708
263
root 0.4642687199353007 17.84872875288777 63.05848018842755 -1.264129775899229 -2.024905309249518 -2.8926065354513373
lfemur -10.303841679735765 -2.7069204600229537 -17.98231759002469
ltibia 26.69557447327107
lfoot 8.065986154152714 -7.772217339292179
ltoes -1.5022951117397625
rfemur -14.547141277886425 4.800205208111171 25.69313000149225
rtibia 37.39081160361447
rfoot -6.17468376808725 -8.829924861556076
rtoes 4.392997764078373
lowerback 11.282414345305728 0.5702497965055302 2.0753275023150195
upperback 0.060816911370247834 1.2693038778240613 2.012007510654112
thorax -5.933556522538532 0.6446058091961155 0.41225080439664297
lowerneck -16.355810097883168 -3.0008941868621704 -3.374291740849112
upperneck 22.2605221786344 -3.6344910065666545 1.457364319487316
head 9.700676803466333 -1.7950521710671363 0.730137455498753
lclavicle -2.028466449454777e-15 -7.130360836270107e-16
lhumerus -33.282379589070416 1.9327345150499584 80.11421616047993
lradius 29.56434020009585
lwrist 8.184365891236634
lhand -30.23884383194293 18.416380461312837
lfingers 7.12502
lthumb -3.3597226736320938 49.011594488635524
rclavicle -2.0276468836945684e-15 -7.124930496516875e-16
rhumerus -29.78107631907648 -21.40683727273659 -75.8437570873922
rradius 20.558056929303795
rwrist 6.008039875770637
rhand -17.058493889186433 21.10170877356669
rfingers 7.12502
rthumb 8.449411522946033 -6.81826556748494
264
root 0.46628027085852963 17.836956507655234 62.972246146976886 -1.2179226085609292 -2.081422197268581 -2.826013071194332
lfemur -10.169517611548 -2.683883304678566 -18.08542373662017
ltibia 27.05701201729361
lfoot 7.265638277997141 -7.146867334963323
ltoes -2.2389272274341936
rfemur -14.72579960670772 4.961945703738445 25.460837519676772
rtibia 37.917343005963104
rfoot -6.392572891598621 -8.882502019685896
rtoes 4.888254967774667
lowerback 11.234464851157496 0.5809879537111486 2.058145826082747
upperback 0.044870689858127116 1.2652778980729813 1.9817039335702926
thorax -5.904808785947419 0.649151677000395 0.446297158161411
lowerneck -16.36209700331403 -2.990486658709382 -3.3746265442236316
upperneck 22.23760680139677 -3.6193847513354007 1.418458141946207
head 9.687036966848764 -1.7911091336510245 0.7166873211980831
lclavicle -2.0285553908374847e-15 -7.130912063963078e-16
lhumerus -33.25574977742862 1.7176499623820933 80.31820208436281
lradius 29.525426308247763
lwrist 7.954069446964383
lhand -30.40642642916353 18.198088059921638
lfingers 7.12502
lthumb -3.481913339789863 48.82667568095632
rclavicle -2.0281293776440277e-15 -7.128010961617055e-16
rhumerus -29.922117675736356 -21.464323014816642 -75.89369731865735
rradius 20.4771178857178
rwrist 5.950221661273707
rhand -17.170073795118913 21.10712234136108
rfingers 7.12502
rthumb 8.343590792218098 -6.86043484428358
